<?xml version="1.0" encoding="utf-8"?>
<!-- Generator: Adobe Illustrator 27.0.0, SVG Export Plug-In . SVG Version: 6.00 Build 0)  -->
<svg version="1.1" id="Layer_1" xmlns="http://www.w3.org/2000/svg" xmlns:xlink="http://www.w3.org/1999/xlink" x="0px" y="0px"
	 viewBox="0 0 64.81 33" style="enable-background:new 0 0 64.81 33;" xml:space="preserve">
<style type="text/css">
	.st0{fill:#FFB33F;}
	.st1{clip-path:url(#SVGID_00000145780631430717191170000007350927706988760725_);}
	.st2{fill:#FFFFFF;}
	.st3{clip-path:url(#SVGID_00000154402173996308367210000007685423421413386683_);}
	.st4{clip-path:url(#SVGID_00000024708479807172247810000007504593495654512056_);}
	.st5{clip-path:url(#SVGID_00000011021696732131501140000008675974446363312778_);}
	.st6{clip-path:url(#SVGID_00000160156086076460669000000006169979974246061198_);}
	.st7{clip-path:url(#SVGID_00000051375656226513900570000011794755569280648854_);}
	.st8{clip-path:url(#SVGID_00000142158700028917742160000013264673839225724593_);}
	.st9{clip-path:url(#SVGID_00000145756705643884723150000003497838227352843419_);}
	.st10{clip-path:url(#SVGID_00000080886905571559466150000001333301424156721060_);}
	.st11{clip-path:url(#SVGID_00000013174237093497046780000014384505792554581655_);}
	.st12{clip-path:url(#SVGID_00000181772495031420215460000011005636175293361338_);}
	.st13{clip-path:url(#SVGID_00000137111700303379972930000017333651153739890588_);}
	.st14{clip-path:url(#SVGID_00000052810251336801341670000013424958416859223984_);}
	.st15{clip-path:url(#SVGID_00000041255568272972452630000011648298156532954766_);}
	.st16{clip-path:url(#SVGID_00000080904948203005609620000006129377778434416555_);}
	.st17{clip-path:url(#SVGID_00000150070324602305516810000002914772148391180434_);}
	.st18{clip-path:url(#SVGID_00000027562070148671585930000001922723797835984005_);}
	.st19{clip-path:url(#SVGID_00000131364723532255378180000001444775637129539227_);}
	.st20{clip-path:url(#SVGID_00000062155138143835878160000013042303745115381923_);}
	.st21{clip-path:url(#SVGID_00000152965322964393763250000002169214688053196716_);}
	.st22{clip-path:url(#SVGID_00000027584218004116695090000018042678772992017336_);}
	.st23{clip-path:url(#SVGID_00000109011859572760021550000004843822926247825061_);}
	.st24{clip-path:url(#SVGID_00000140727674005525653170000000520885051633862071_);}
	.st25{clip-path:url(#SVGID_00000020396702261202567430000004370560967435510963_);}
	.st26{clip-path:url(#SVGID_00000100342433705511091920000010627368416902327970_);}
	.st27{clip-path:url(#SVGID_00000183929903195491980380000007928767293336491944_);}
	.st28{fill:#FBB03B;}
	.st29{clip-path:url(#SVGID_00000081607160626153918110000008834401224288878215_);}
	.st30{clip-path:url(#SVGID_00000013905192759491561430000008390787321018154936_);}
	.st31{clip-path:url(#SVGID_00000020375764694272322570000009816890650237328777_);}
	.st32{clip-path:url(#SVGID_00000056391587125087240970000012670760329746075563_);}
	.st33{clip-path:url(#SVGID_00000124849905501318450780000004936100141074379192_);}
	.st34{fill:none;stroke:#000000;stroke-miterlimit:10;}
</style>
<g>
	<path class="st2" d="M18.9,2.53h-2.82V0h9.69v2.53h-2.79v6.83H18.9V2.53z"/>
	<path class="st2" d="M26.93,0h4.09v3.23h2.18V0h4.09v9.36H33.2v-3.6h-2.18v3.6h-4.09V0z"/>
	<path class="st2" d="M47.84,5.89H43.1v0.96h5.34l-0.48,2.51h-8.83V0h8.94v2.53H43.1v0.84h4.74V5.89z"/>
	<path class="st2" d="M11.14,17.61c-0.45,2.56-2.5,3.69-5.53,3.69C2.01,21.3,0,19.32,0,16.36c0-2.62,1.63-4.89,5.73-4.89
		c3.67,0,5.22,1.71,5.45,3.64H7.07c-0.11-0.66-0.37-1.28-1.33-1.28c-0.97,0-1.43,0.81-1.43,2.51c0,1.22,0.23,2.49,1.43,2.49
		c0.94,0,1.24-0.56,1.38-1.22H11.14z"/>
	<path class="st2" d="M23.67,16.38c0,2.75-1.79,4.92-5.88,4.92c-3.68,0-5.67-2.13-5.67-4.9c0-2.59,1.61-4.93,5.85-4.93
		C21.44,11.46,23.67,13.52,23.67,16.38z M16.43,16.31c0,1.46,0.32,2.51,1.51,2.51c1.17,0,1.42-1.05,1.42-2.43
		c0-1.67-0.31-2.56-1.49-2.56C16.82,13.83,16.43,14.72,16.43,16.31z"/>
	<path class="st2" d="M25.04,11.7h8.77v2.53h-4.74v1.24h4.45v2.53h-4.45v3.07h-4.03V11.7z"/>
	<path class="st2" d="M35.06,11.7h8.77v2.53h-4.74v1.24h4.45v2.53h-4.45v3.07h-4.03V11.7z"/>
	<path class="st2" d="M53.79,17.59h-4.74v0.96h5.34l-0.48,2.51h-8.83V11.7h8.94v2.53h-4.98v0.84h4.74V17.59z"/>
	<path class="st2" d="M64.21,17.59h-4.74v0.96h5.34l-0.48,2.51h-8.83V11.7h8.94v2.53h-4.98v0.84h4.74V17.59z"/>
	<path class="st2" d="M13.32,29.96c0.09,0.39,0.33,0.82,1.05,0.82c0.54,0,0.84-0.21,0.84-0.53c0-0.33-0.09-0.57-1.62-0.85
		c-3.67-0.67-4.03-2.01-4.03-3.2c0-1.73,1.54-3.03,4.67-3.03c2.86,0,4.74,1.02,4.89,2.9h-3.84c-0.08-0.4-0.29-0.71-0.92-0.71
		c-0.45,0-0.68,0.17-0.68,0.44c0,0.32,0.4,0.48,1.44,0.66c3.43,0.6,4.35,1.77,4.35,3.24c0,2.03-1.89,3.3-5.01,3.3
		c-3.4,0-4.94-1.33-5.22-3.04H13.32z"/>
	<path class="st2" d="M20.7,23.41h4.09v3.23h2.18v-3.23h4.09v9.36h-4.09v-3.6h-2.18v3.6H20.7V23.41z"/>
	<path class="st2" d="M43.98,28.09c0,2.75-1.79,4.92-5.88,4.92c-3.68,0-5.67-2.13-5.67-4.9c0-2.59,1.61-4.93,5.85-4.93
		C41.74,23.17,43.98,25.23,43.98,28.09z M36.73,28.02c0,1.46,0.32,2.51,1.51,2.51c1.17,0,1.42-1.05,1.42-2.43
		c0-1.68-0.31-2.56-1.49-2.56C37.12,25.54,36.73,26.42,36.73,28.02z"/>
	<path class="st2" d="M45.34,23.41h5.86c2.45,0,4.08,1.2,4.08,3.18c0,2.1-1.65,3.19-3.95,3.19h-1.97v2.99h-4.03V23.41z M49.36,27.44
		h0.9c0.69,0,1.04-0.36,1.04-0.85c0-0.43-0.27-0.84-1.04-0.84h-0.9V27.44z"/>
</g>
</svg>
